<?xml version="1.0" encoding="UTF-8"?>
<svg version="1.1" xmlns="http://www.w3.org/2000/svg" width="500" height="500">
<path d="M0 0 C165 0 330 0 500 0 C500 165 500 330 500 500 C335 500 170 500 0 500 C0 335 0 170 0 0 Z " fill="#282E3B" transform="translate(0,0)"/>
<path d="M0 0 C1.94140625 0.3828125 1.94140625 0.3828125 4.44140625 2.0078125 C6.39521338 5.10134046 6.45659316 6.77650416 5.94140625 10.3828125 C4.56640625 13.2578125 4.56640625 13.2578125 2.94140625 15.3828125 C2.28140625 15.3828125 1.62140625 15.3828125 0.94140625 15.3828125 C2.27552739 19.38517592 4.13467025 20.12284683 7.62890625 22.4453125 C8.80415151 23.23584143 9.97860141 24.02755381 11.15234375 24.8203125 C11.76819336 25.23410156 12.38404297 25.64789063 13.01855469 26.07421875 C16.30294741 28.30940729 19.52711293 30.62809625 22.75390625 32.9453125 C23.37031982 33.38689697 23.9867334 33.82848145 24.62182617 34.28344727 C26.06233466 35.31566465 27.50197283 36.34909645 28.94140625 37.3828125 C28.06640625 41.2578125 28.06640625 41.2578125 26.94140625 42.3828125 C25.130856 42.47657303 23.31663424 42.5002536 21.50366211 42.49633789 C19.76196999 42.49622459 19.76196999 42.49622459 17.98509216 42.49610901 C16.08981529 42.48836708 16.08981529 42.48836708 14.15625 42.48046875 C12.87029434 42.4790538 11.58433868 42.47763885 10.25941467 42.47618103 C6.83497182 42.47235668 3.41057116 42.46252712 -0.01385498 42.45147705 C-3.50597564 42.44126114 -6.99810309 42.43668303 -10.49023438 42.43164062 C-17.34637153 42.42090477 -24.20248062 42.40382934 -31.05859375 42.3828125 C-31.38859375 40.7328125 -31.71859375 39.0828125 -32.05859375 37.3828125 C-9.27606014 19.45075379 -9.27606014 19.45075379 -3.05859375 18.3828125 C-3.38859375 16.4028125 -3.71859375 14.4228125 -4.05859375 12.3828125 C-5.70859375 12.3828125 -7.35859375 12.3828125 -9.05859375 12.3828125 C-9.41414931 5.27170139 -9.41414931 5.27170139 -8.05859375 1.8828125 C-5.45328731 -0.07116733 -3.20664833 -0.17716289 0 0 Z " fill="#2D313B" transform="translate(252.05859375,171.6171875)"/>
<path d="M0 0 C4.16088642 1.75681871 6.42889949 4.32699927 9 8 C10.63509159 12.90527476 10.39374496 16.77731827 8.8125 21.6875 C6.58227554 25.76342745 4.12678055 27.93660972 0 30 C-4.67470792 30.57031437 -8.12316498 30.43841751 -12.375 28.3125 C-15.93805945 25.1736143 -17.7554412 22.62835403 -18.46875 17.87890625 C-18.56352674 7.8207247 -18.56352674 7.8207247 -15.75 4.3125 C-10.62434002 0.00228593 -6.58321663 -0.75506427 0 0 Z " fill="#E0D1BD" transform="translate(236,243)"/>
<path d="M0 0 C0.66 0 1.32 0 2 0 C2.33 1.65 2.66 3.3 3 5 C3.99 5 4.98 5 6 5 C6 6.65 6 8.3 6 10 C5.01 10 4.02 10 3 10 C3 10.99 3 11.98 3 13 C7.62 13 12.24 13 17 13 C17 12.01 17 11.02 17 10 C16.01 9.67 15.02 9.34 14 9 C14.33 7.68 14.66 6.36 15 5 C15.66 5 16.32 5 17 5 C17.12375 4.360625 17.2475 3.72125 17.375 3.0625 C17.684375 2.0415625 17.684375 2.0415625 18 1 C18.66 0.67 19.32 0.34 20 0 C19.89300781 0.73605469 19.78601563 1.47210938 19.67578125 2.23046875 C18.80169525 8.24085683 18.80169525 8.24085683 20.375 13.9375 C20.91125 14.618125 21.4475 15.29875 22 16 C23.4402816 19.79710604 23.76537996 24.01528988 23 28 C20.87091617 31.00576541 20.29252038 31.75743144 17 33 C11.04040362 33.78764256 5.28598511 34.52087989 0.12890625 31.08984375 C-2.51236216 28.49703898 -2.93552866 27.63181912 -3.3125 23.9375 C-3.01988003 20.25048835 -2.56887787 18.88337059 -0.9375 15.75 C1.69041773 10.41117766 0.98436203 5.72427922 0 0 Z " fill="#303339" transform="translate(300,293)"/>
<path d="M0 0 C2.31 0 4.62 0 7 0 C8.54242365 2.77041256 10.08378952 5.54141238 11.625 8.3125 C12.05167969 9.07884766 12.47835937 9.84519531 12.91796875 10.63476562 C16.3120953 16.73912755 19.6551419 22.86776015 23 29 C23.33 19.43 23.66 9.86 24 0 C25.65 0 27.3 0 29 0 C29 12.21 29 24.42 29 37 C26.36 37 23.72 37 21 37 C20.65743164 36.33991943 20.31486328 35.67983887 19.96191406 34.99975586 C18.39274792 31.97823691 16.82139213 28.95786184 15.25 25.9375 C14.71117188 24.89916016 14.17234375 23.86082031 13.6171875 22.79101562 C13.08867188 21.77587891 12.56015625 20.76074219 12.015625 19.71484375 C11.53383789 18.78792725 11.05205078 17.86101074 10.55566406 16.90600586 C8.76890564 13.56831197 6.87831061 10.28704356 5 7 C4.67 16.9 4.34 26.8 4 37 C2.68 37 1.36 37 0 37 C0 24.79 0 12.58 0 0 Z " fill="#E5D5C0" transform="translate(69,235)"/>
<path d="M0 0 C3.68342468 0.02635724 5.43126005 0.70577851 8.1875 3.25 C8.8475 3.25 9.5075 3.25 10.1875 3.25 C10.55875 2.755 10.93 2.26 11.3125 1.75 C13.77006179 -0.21604944 15.97899349 -0.19901146 19.0546875 -0.34375 C22.74961586 0.68487475 23.98427722 2.09547204 26.1875 5.25 C26.80157418 9.37080077 26.65782388 13.40808998 26.5 17.5625 C26.47744141 18.68462891 26.45488281 19.80675781 26.43164062 20.96289062 C26.37283776 23.72662536 26.29070401 26.48762554 26.1875 29.25 C24.5375 29.25 22.8875 29.25 21.1875 29.25 C21.16244385 28.55849854 21.1373877 27.86699707 21.11157227 27.15454102 C20.99597839 24.04032134 20.87308758 20.92643211 20.75 17.8125 C20.71068359 16.72388672 20.67136719 15.63527344 20.63085938 14.51367188 C20.58896484 13.47919922 20.54707031 12.44472656 20.50390625 11.37890625 C20.44891968 9.94140015 20.44891968 9.94140015 20.39282227 8.47485352 C20.42915576 6.27861075 20.42915576 6.27861075 19.1875 5.25 C16.22932893 4.99994614 16.22932893 4.99994614 13.1875 5.25 C10.66621644 7.77128356 10.89396931 8.76239013 10.7734375 12.2578125 C10.73476563 13.24394531 10.69609375 14.23007812 10.65625 15.24609375 C10.60984375 16.79490234 10.60984375 16.79490234 10.5625 18.375 C10.52382813 19.41527344 10.48515625 20.45554687 10.4453125 21.52734375 C10.35085234 24.10138311 10.26528786 26.67541155 10.1875 29.25 C8.5375 29.25 6.8875 29.25 5.1875 29.25 C5.16768066 28.59402832 5.14786133 27.93805664 5.12744141 27.26220703 C5.03237493 24.29938931 4.92262248 21.33729468 4.8125 18.375 C4.7815625 17.34246094 4.750625 16.30992187 4.71875 15.24609375 C4.68007813 14.25996094 4.64140625 13.27382813 4.6015625 12.2578125 C4.55443115 10.89100342 4.55443115 10.89100342 4.50634766 9.49658203 C4.38867489 7.05068814 4.38867489 7.05068814 2.1875 5.25 C-0.8125 4.83333333 -0.8125 4.83333333 -3.8125 5.25 C-5.93530563 8.43420845 -6.09269537 9.45537255 -6.2265625 13.13671875 C-6.26523438 14.07451172 -6.30390625 15.01230469 -6.34375 15.97851562 C-6.3746875 16.95498047 -6.405625 17.93144531 -6.4375 18.9375 C-6.47617188 19.92556641 -6.51484375 20.91363281 -6.5546875 21.93164062 C-6.64895867 24.37090707 -6.73456218 26.81016595 -6.8125 29.25 C-8.4625 29.25 -10.1125 29.25 -11.8125 29.25 C-11.8125 20.01 -11.8125 10.77 -11.8125 1.25 C-9.47916667 1.25 -7.14583333 1.25 -4.8125 1.25 C-3.8125 0.25 -3.8125 0.25 0 0 Z " fill="#E1D2BD" transform="translate(261.8125,242.75)"/>
<path d="M0 0 C3.96127533 0.98860251 6.70467517 3.44424412 9.25390625 6.5625 C10.25390625 9.5625 10.25390625 9.5625 10.25390625 16.5625 C3.32390625 16.5625 -3.60609375 16.5625 -10.74609375 16.5625 C-8.69205444 21.38393028 -8.69205444 21.38393028 -5.74609375 25.5625 C-1.71449184 25.82543056 -0.18716641 25.85654844 3.25390625 23.5625 C3.58390625 22.5725 3.91390625 21.5825 4.25390625 20.5625 C5.90390625 20.5625 7.55390625 20.5625 9.25390625 20.5625 C8.95931616 24.09758103 8.50509212 25.32453444 5.87890625 27.8125 C1.62190619 30.65050004 -1.69514206 30.99054675 -6.74609375 30.5625 C-10.72881253 28.64773136 -12.40807392 27.14840104 -14.62109375 23.3125 C-16.24359819 17.90415186 -16.54666333 13.83078046 -14.62109375 8.375 C-10.7492089 2.56717273 -7.03034677 -0.38066175 0 0 Z " fill="#E2D2BE" transform="translate(117.74609375,242.4375)"/>
<path d="M0 0 C2.89504691 0.55337919 4.21643261 2.0711289 5.94140625 4.37109375 C6.62203125 3.71109375 7.30265625 3.05109375 8.00390625 2.37109375 C11.69014743 -0.13868748 13.55878776 -0.25499461 17.94140625 0.37109375 C20.69469646 2.1667178 22.46768086 3.42364297 23.94140625 6.37109375 C24.02590253 8.11153545 24.04863649 9.85519097 24.0390625 11.59765625 C24.03583984 12.62890625 24.03261719 13.66015625 24.02929688 14.72265625 C24.01672852 16.34300781 24.01672852 16.34300781 24.00390625 17.99609375 C23.99939453 19.0840625 23.99488281 20.17203125 23.99023438 21.29296875 C23.97842401 23.98573164 23.96195403 26.67838563 23.94140625 29.37109375 C22.29140625 29.37109375 20.64140625 29.37109375 18.94140625 29.37109375 C18.61140625 21.45109375 18.28140625 13.53109375 17.94140625 5.37109375 C15.30140625 5.37109375 12.66140625 5.37109375 9.94140625 5.37109375 C8.21569264 8.38655122 7.66042966 10.67648505 7.52734375 14.13671875 C7.48867188 15.02617187 7.45 15.915625 7.41015625 16.83203125 C7.36375 18.21261719 7.36375 18.21261719 7.31640625 19.62109375 C7.27773438 20.55695313 7.2390625 21.4928125 7.19921875 22.45703125 C7.10515781 24.76152429 7.01951226 27.06601388 6.94140625 29.37109375 C5.29140625 29.37109375 3.64140625 29.37109375 1.94140625 29.37109375 C1.9163501 28.67959229 1.89129395 27.98809082 1.86547852 27.27563477 C1.74988464 24.16141509 1.62699383 21.04752586 1.50390625 17.93359375 C1.46458984 16.84498047 1.42527344 15.75636719 1.38476562 14.63476562 C1.34287109 13.60029297 1.30097656 12.56582031 1.2578125 11.5 C1.22115479 10.5416626 1.18449707 9.5833252 1.14672852 8.59594727 C1.18306201 6.3997045 1.18306201 6.3997045 -0.05859375 5.37109375 C-3.01676482 5.12103989 -3.01676482 5.12103989 -6.05859375 5.37109375 C-9.10038075 8.41288075 -9.1665412 11.53004268 -9.375 15.69921875 C-9.41689453 16.4984375 -9.45878906 17.29765625 -9.50195312 18.12109375 C-9.56092773 19.35859375 -9.56092773 19.35859375 -9.62109375 20.62109375 C-9.66427734 21.4615625 -9.70746094 22.30203125 -9.75195312 23.16796875 C-9.85767918 25.23550046 -9.9586067 27.30327656 -10.05859375 29.37109375 C-11.37859375 29.37109375 -12.69859375 29.37109375 -14.05859375 29.37109375 C-14.05859375 20.13109375 -14.05859375 10.89109375 -14.05859375 1.37109375 C-12.73859375 1.37109375 -11.41859375 1.37109375 -10.05859375 1.37109375 C-9.72859375 2.03109375 -9.39859375 2.69109375 -9.05859375 3.37109375 C-8.72859375 2.87609375 -8.39859375 2.38109375 -8.05859375 1.87109375 C-5.44912189 -0.08601015 -3.20295808 -0.10027677 0 0 Z " fill="#E1D2BD" transform="translate(309.05859375,242.62890625)"/>
<path d="M0 0 C3.46868763 2.06645221 5.80891972 4.10191909 7 8 C7 10.64 7 13.28 7 16 C0.4 16 -6.2 16 -13 16 C-11.7284644 22.59529756 -11.7284644 22.59529756 -9 25 C-4.34805286 25.34216235 -4.34805286 25.34216235 0 24 C1.13350534 21.98330173 1.13350534 21.98330173 2 20 C3.65 20 5.3 20 7 20 C6.52695318 24.25742137 4.1136178 26.25705098 1 29 C-2.61930698 30.20643566 -5.19231005 30.32268559 -9 30 C-13.45916295 27.68466539 -15.77919801 25.46720401 -18 21 C-18.82885269 15.45191396 -18.7240695 10.52859117 -16.3125 5.4375 C-11.40981435 0.26980431 -7.02541655 -1.16027751 0 0 Z " fill="#E5D5C0" transform="translate(427,243)"/>
<path d="M0 0 C3.46868763 2.06645221 5.80891972 4.10191909 7 8 C7 10.64 7 13.28 7 16 C0.4 16 -6.2 16 -13 16 C-11.7284644 22.59529756 -11.7284644 22.59529756 -9 25 C-4.34805286 25.34216235 -4.34805286 25.34216235 0 24 C1.13350534 21.98330173 1.13350534 21.98330173 2 20 C3.65 20 5.3 20 7 20 C6.52695318 24.25742137 4.1136178 26.25705098 1 29 C-2.61930698 30.20643566 -5.19231005 30.32268559 -9 30 C-13.45916295 27.68466539 -15.77919801 25.46720401 -18 21 C-18.82885269 15.45191396 -18.7240695 10.52859117 -16.3125 5.4375 C-11.40981435 0.26980431 -7.02541655 -1.16027751 0 0 Z " fill="#E5D5C0" transform="translate(355,243)"/>
<path d="M0 0 C3.02245069 0.08792584 4.0062956 0.29784214 6.625 2 C8.57880713 5.09352796 8.64018691 6.76869166 8.125 10.375 C6.75 13.25 6.75 13.25 5.125 15.375 C4.465 15.375 3.805 15.375 3.125 15.375 C4.45912114 19.37736342 6.318264 20.11503433 9.8125 22.4375 C10.98774526 23.22802893 12.16219516 24.01974131 13.3359375 24.8125 C13.95178711 25.22628906 14.56763672 25.64007813 15.20214844 26.06640625 C18.48654116 28.30159479 21.71070668 30.62028375 24.9375 32.9375 C25.55391357 33.37908447 26.17032715 33.82066895 26.80541992 34.27563477 C28.24592841 35.30785215 29.68556658 36.34128395 31.125 37.375 C30.25 41.25 30.25 41.25 29.125 42.375 C27.31444975 42.46876053 25.50022799 42.4924411 23.68725586 42.48852539 C21.94556374 42.48841209 21.94556374 42.48841209 20.16868591 42.48829651 C18.27340904 42.48055458 18.27340904 42.48055458 16.33984375 42.47265625 C15.05388809 42.4712413 13.76793243 42.46982635 12.44300842 42.46836853 C9.01856557 42.46454418 5.59416491 42.45471462 2.16973877 42.44366455 C-1.32238189 42.43344864 -4.81450934 42.42887053 -8.30664062 42.42382812 C-15.16277778 42.41309227 -22.01888687 42.39601684 -28.875 42.375 C-29.205 40.725 -29.535 39.075 -29.875 37.375 C-7.09246639 19.44294129 -7.09246639 19.44294129 -0.875 18.375 C-0.875 19.365 -0.875 20.355 -0.875 21.375 C-2.72338867 22.96899414 -2.72338867 22.96899414 -5.29296875 24.66015625 C-6.21787109 25.27310547 -7.14277344 25.88605469 -8.09570312 26.51757812 C-9.07474609 27.15115234 -10.05378906 27.78472656 -11.0625 28.4375 C-12.02220703 29.07494141 -12.98191406 29.71238281 -13.97070312 30.36914062 C-18.19060732 33.14055175 -22.11906284 35.62510881 -26.875 37.375 C-26.875 38.035 -26.875 38.695 -26.875 39.375 C-0.145 38.88 -0.145 38.88 27.125 38.375 C20.855 34.085 14.585 29.795 8.125 25.375 C5.815 23.725 3.505 22.075 1.125 20.375 C0.6875 16.5625 0.6875 16.5625 1.125 13.375 C2.445 12.715 3.765 12.055 5.125 11.375 C4.465 9.065 3.805 6.755 3.125 4.375 C0.07586772 3.36388907 0.07586772 3.36388907 -2.875 4.375 C-3.53055119 6.90233235 -3.53055119 6.90233235 -3.875 9.375 C-4.865 9.375 -5.855 9.375 -6.875 9.375 C-5.89673913 0.57065217 -5.89673913 0.57065217 0 0 Z " fill="#B89E9D" transform="translate(249.875,171.625)"/>
<path d="M0 0 C2.6756047 1.71106572 4.13212531 3.55560984 5.89453125 6.19921875 C6.01953125 8.88671875 6.01953125 8.88671875 5.89453125 11.19921875 C4.57453125 11.19921875 3.25453125 11.19921875 1.89453125 11.19921875 C-1.10546875 7.12779018 -1.10546875 7.12779018 -1.10546875 4.19921875 C-4.83447191 2.9562177 -8.23896089 2.52805135 -12.10546875 3.19921875 C-15.12938427 4.93829463 -17.52295536 7.03419197 -19.10546875 10.19921875 C-19.25523914 12.44577462 -19.32697049 14.69785643 -19.35546875 16.94921875 C-19.38125 18.1609375 -19.40703125 19.37265625 -19.43359375 20.62109375 C-19.07260208 24.55762198 -18.25150362 26.89316502 -16.10546875 30.19921875 C-12.52009877 32.80542198 -9.37565765 32.32700343 -5.1640625 31.74609375 C-2.92285978 31.3247058 -2.92285978 31.3247058 -1.10546875 29.32421875 C-0.00483276 27.09367369 -0.00483276 27.09367369 0.89453125 24.19921875 C2.54453125 24.19921875 4.19453125 24.19921875 5.89453125 24.19921875 C5.62444339 28.07047802 5.13516377 29.90511234 2.64453125 32.94921875 C-1.8245694 36.60575565 -5.27765303 37.63203899 -11.12109375 37.4453125 C-15.86402245 36.85711465 -18.58560631 34.73089625 -21.85546875 31.38671875 C-25.86732199 25.70325999 -27.16975547 20.05673625 -26.10546875 13.19921875 C-24.41747694 8.26564611 -22.20298739 4.35161332 -18.60546875 0.57421875 C-12.8317478 -1.69402877 -5.90322875 -2.24519832 0 0 Z " fill="#E1D2BD" transform="translate(208.10546875,235.80078125)"/>
<path d="M0 0 C1.32 0 2.64 0 4 0 C3.67 1.65 3.34 3.3 3 5 C4.32 5 5.64 5 7 5 C8.484375 6.4609375 8.484375 6.4609375 9.75 8.375 C10.17796875 9.00148438 10.6059375 9.62796875 11.046875 10.2734375 C12 12 12 12 12 14 C11.34 14 10.68 14 10 14 C8.61767557 12.37373596 7.28062485 10.7074998 6 9 C5.65974639 12.66835926 5.63376598 14.46536373 7.75 17.5546875 C8.4925 18.32039063 9.235 19.08609375 10 19.875 C10.7425 20.65617187 11.485 21.43734375 12.25 22.2421875 C12.8275 22.82226562 13.405 23.40234375 14 24 C13 27 13 27 10.6875 28.1875 C8 29 8 29 4 29 C3.67 30.32 3.34 31.64 3 33 C3 31.68 3 30.36 3 29 C2.34 29 1.68 29 1 29 C0.67 30.32 0.34 31.64 0 33 C0 31.68 0 30.36 0 29 C-0.721875 28.855625 -1.44375 28.71125 -2.1875 28.5625 C-6.09375 27.78125 -6.09375 27.78125 -10 27 C-9.42296506 23.38551725 -8.04967457 21.7528488 -5.5 19.1875 C-2.036496 15.41235147 -1.10584549 13.08058371 -1 8 C-1.66 8 -2.32 8 -3 8 C-3.66 9.32 -4.32 10.64 -5 12 C-5.99 12 -6.98 12 -8 12 C-7.360625 11.21625 -6.72125 10.4325 -6.0625 9.625 C-4.01857687 7.20460719 -4.01857687 7.20460719 -3 5 C-2.01 5 -1.02 5 0 5 C0 3.35 0 1.7 0 0 Z " fill="#98898C" transform="translate(249,293)"/>
<path d="M0 0 C2.5 1.8125 2.5 1.8125 4 5 C4.65799679 10.04464208 4.68883699 14.43446139 2.625 19.125 C0.31781387 21.78713784 -0.76026451 21.96833682 -4.3125 22.4375 C-8 22 -8 22 -10.9375 19.6875 C-13.63718527 15.9204973 -13.71046095 12.08824562 -13.4765625 7.5703125 C-13 5 -13 5 -11 1.8125 C-6.80867673 -0.71975781 -4.84985135 -0.76981767 0 0 Z " fill="#2B313D" transform="translate(236,247)"/>
<path d="M0 0 C3.75797102 1.34719716 5.51483917 2.33694687 7.875 5.5625 C9 8 9 8 9 10 C7.35 10 5.7 10 4 10 C3.34 8.35 2.68 6.7 2 5 C0.56416999 4.89163547 -0.8740202 4.81423833 -2.3125 4.75 C-3.11300781 4.70359375 -3.91351563 4.6571875 -4.73828125 4.609375 C-7.12250855 4.80609462 -7.12250855 4.80609462 -8.76953125 6.67578125 C-11.00915989 10.90619091 -10.49583226 15.34468602 -10 20 C-9.13539818 23.20580708 -9.13539818 23.20580708 -7 25 C-2.91399472 25.59587577 -1.47351075 25.31567384 2 23 C2.33 22.01 2.66 21.02 3 20 C4.65 20 6.3 20 8 20 C7.70540991 23.53508103 7.25118587 24.76203444 4.625 27.25 C0.36157172 30.09228552 -2.94648231 30.34851846 -8 30 C-12.22778339 28.17436626 -13.98483252 26.08694078 -16 22 C-16.73921993 16.73305797 -17.28548701 10.74335735 -14.98046875 5.82421875 C-10.72700694 0.64553262 -6.49066525 -0.7867473 0 0 Z " fill="#E2D3BE" transform="translate(398,243)"/>
<path d="M0 0 C2.29296875 -0.28125 2.29296875 -0.28125 5 0 C6.80078125 1.96875 6.80078125 1.96875 8.3125 4.5 C8.82425781 5.3353125 9.33601562 6.170625 9.86328125 7.03125 C10.23839844 7.6809375 10.61351562 8.330625 11 9 C13.31986973 6.84012129 14.95873219 5.07894712 16.4375 2.25 C16.953125 1.5075 17.46875 0.765 18 0 C20.6875 -0.3125 20.6875 -0.3125 23 0 C21.6744419 3.62276315 20.05653045 6.63505348 17.875 9.8125 C17.33617187 10.60269531 16.79734375 11.39289063 16.2421875 12.20703125 C15.83226562 12.79871094 15.42234375 13.39039063 15 14 C15.6496875 14.92683594 16.299375 15.85367187 16.96875 16.80859375 C17.81262221 18.01814391 18.65636558 19.22778397 19.5 20.4375 C19.92925781 21.04916016 20.35851562 21.66082031 20.80078125 22.29101562 C24 26.88671875 24 26.88671875 24 28 C21.375 28.625 21.375 28.625 18 28 C15.57495765 24.88676995 13.77168347 21.51823667 12 18 C9.80125746 20.06529285 8.21929155 22.13556353 6.625 24.6875 C5.33984375 26.546875 5.33984375 26.546875 4 28 C1.1875 28.4375 1.1875 28.4375 -1 28 C0.98800324 24.44999422 2.92000628 21.11026161 5.3125 17.8125 C7.22123434 15.27231145 7.22123434 15.27231145 6.796875 13.11328125 C5.83578273 10.56450224 4.50952512 8.59739013 2.9375 6.375 C0 2.21411765 0 2.21411765 0 0 Z " fill="#E4D4BF" transform="translate(130,244)"/>
<path d="M0 0 C1.65 0.33 3.3 0.66 5 1 C5 1.66 5 2.32 5 3 C4.34 3 3.68 3 3 3 C4 5.5 4 5.5 8 7 C8 11.29 8 15.58 8 20 C7.01 20 6.02 20 5 20 C4.67 24.29 4.34 28.58 4 33 C2.68 33 1.36 33 0 33 C-2.28571429 24.57142857 -2.28571429 24.57142857 -2 20 C-2.66 20 -3.32 20 -4 20 C-4.05386629 17.87527424 -4.09273071 15.75016348 -4.125 13.625 C-4.14820313 12.44164062 -4.17140625 11.25828125 -4.1953125 10.0390625 C-4 7 -4 7 -2 5 C-1.01 5 -0.02 5 1 5 C1 4.34 1 3.68 1 3 C0.34 3 -0.32 3 -1 3 C-0.67 2.01 -0.34 1.02 0 0 Z " fill="#C19793" transform="translate(194,293)"/>
<path d="M0 0 C0.66 0 1.32 0 2 0 C2.33 1.65 2.66 3.3 3 5 C3.99 5 4.98 5 6 5 C6 6.65 6 8.3 6 10 C5.01 10 4.02 10 3 10 C3 10.99 3 11.98 3 13 C7.62 13 12.24 13 17 13 C17 12.01 17 11.02 17 10 C16.01 9.67 15.02 9.34 14 9 C14.33 7.68 14.66 6.36 15 5 C15.66 5 16.32 5 17 5 C17.12375 4.360625 17.2475 3.72125 17.375 3.0625 C17.684375 2.0415625 17.684375 2.0415625 18 1 C18.66 0.67 19.32 0.34 20 0 C19.89300781 0.73605469 19.78601563 1.47210938 19.67578125 2.23046875 C18.80169525 8.24085683 18.80169525 8.24085683 20.375 13.9375 C20.91125 14.618125 21.4475 15.29875 22 16 C23.4402816 19.79710604 23.76537996 24.01528988 23 28 C20.87091617 31.00576541 20.29252038 31.75743144 17 33 C11.04040362 33.78764256 5.28598511 34.52087989 0.12890625 31.08984375 C-2.51236216 28.49703898 -2.93552866 27.63181912 -3.3125 23.9375 C-3.01988003 20.25048835 -2.56887787 18.88337059 -0.9375 15.75 C1.69041773 10.41117766 0.98436203 5.72427922 0 0 Z M1 15 C-0.43827256 16.21443275 -0.43827256 16.21443275 -0.1875 19.8125 C-0.1585691 23.03540201 0.17029815 25.25544723 2 28 C1.01 27.34 0.02 26.68 -1 26 C-0.04014706 28.39963235 0.57301428 29.73659972 2.8046875 31.11328125 C7.70820471 33.0938834 12.61975145 32.55209942 17.4375 30.625 C20.04050841 29.10513982 20.04050841 29.10513982 22 27 C21.67 26.01 21.34 25.02 21 24 C20.67 24.33 20.34 24.66 20 25 C20 21.7 20 18.4 20 15 C14.72 15 9.44 15 4 15 C4 15.99 4 16.98 4 18 C3.67 17.01 3.34 16.02 3 15 C2.34 15 1.68 15 1 15 Z " fill="#948589" transform="translate(300,293)"/>
<path d="M0 0 C1.65 0 3.3 0 5 0 C5 2.31 5 4.62 5 7 C6.65 7 8.3 7 10 7 C10 7.99 10 8.98 10 10 C8.35 10 6.7 10 5 10 C5.33 17.26 5.66 24.52 6 32 C7.32 32 8.64 32 10 32 C10 32.99 10 33.98 10 35 C6.625 35.125 6.625 35.125 3 35 C1 33 1 33 0.77294922 30.66162109 C0.78342285 29.70852051 0.79389648 28.75541992 0.8046875 27.7734375 C0.81113281 26.7421875 0.81757813 25.7109375 0.82421875 24.6484375 C0.84097656 23.56820313 0.85773438 22.48796875 0.875 21.375 C0.88402344 20.28703125 0.89304688 19.1990625 0.90234375 18.078125 C0.92596591 15.38519848 0.95890444 12.69270745 1 10 C-0.32 10 -1.64 10 -3 10 C-3 9.01 -3 8.02 -3 7 C-2.01 7 -1.02 7 0 7 C0 4.69 0 2.38 0 0 Z " fill="#E9D9C3" transform="translate(158,237)"/>
<path d="M0 0 C1.65 0 3.3 0 5 0 C5.33 0.99 5.66 1.98 6 3 C6.4125 2.505 6.825 2.01 7.25 1.5 C9 0 9 0 13 0 C13 1.32 13 2.64 13 4 C12.21625 4.268125 11.4325 4.53625 10.625 4.8125 C7.71885077 5.84814432 7.71885077 5.84814432 6 9 C5.6349209 11.22131423 5.6349209 11.22131423 5.5859375 13.66796875 C5.54726563 14.56064453 5.50859375 15.45332031 5.46875 16.37304688 C5.4378125 17.30181641 5.406875 18.23058594 5.375 19.1875 C5.33632813 20.12787109 5.29765625 21.06824219 5.2578125 22.03710938 C5.16356813 24.3578771 5.07795975 26.67863748 5 29 C3.35 29 1.7 29 0 29 C0 19.43 0 9.86 0 0 Z " fill="#DCCDBA" transform="translate(367,243)"/>
<path d="M0 0 C0.99 0 1.98 0 3 0 C3 0.99 3 1.98 3 3 C1.15161133 4.59399414 1.15161133 4.59399414 -1.41796875 6.28515625 C-2.34287109 6.89810547 -3.26777344 7.51105469 -4.22070312 8.14257812 C-5.19974609 8.77615234 -6.17878906 9.40972656 -7.1875 10.0625 C-8.14720703 10.69994141 -9.10691406 11.33738281 -10.09570312 11.99414062 C-14.31560732 14.76555175 -18.24406284 17.25010881 -23 19 C-23 19.66 -23 20.32 -23 21 C-20.00525286 21.99824905 -17.92654666 22.15324032 -14.79418945 22.20532227 C-13.73331619 22.22526749 -12.67244293 22.24521271 -11.579422 22.26576233 C-9.86368233 22.29083107 -9.86368233 22.29083107 -8.11328125 22.31640625 C-6.94113571 22.33718735 -5.76899017 22.35796844 -4.56132507 22.37937927 C-0.81177714 22.44483818 2.93784163 22.50374296 6.6875 22.5625 C9.22722091 22.60568868 11.76693462 22.64930308 14.30664062 22.69335938 C20.53768522 22.80051586 26.76880051 22.9022892 33 23 C33 23.33 33 23.66 33 24 C13.86 24 -5.28 24 -25 24 C-25.33 22.35 -25.66 20.7 -26 19 C-18.60541699 13.17974757 -11.15837721 7.63051502 -3.265625 2.49609375 C-1.12328046 1.19008661 -1.12328046 1.19008661 0 0 Z " fill="#A78E8E" transform="translate(246,190)"/>
<path d="M0 0 C1.32 0 2.64 0 4 0 C4.33 0.66 4.66 1.32 5 2 C5.33 1.34 5.66 0.68 6 0 C6.99 0.33 7.98 0.66 9 1 C8.566875 1.8353125 8.566875 1.8353125 8.125 2.6875 C7.75375 3.450625 7.3825 4.21375 7 5 C6.6596875 5.680625 6.319375 6.36125 5.96875 7.0625 C4.62680584 11.13162099 4.53637947 15.05275451 4.375 19.3125 C4.33632813 20.14845703 4.29765625 20.98441406 4.2578125 21.84570312 C4.16404841 23.89679259 4.08095755 25.94836515 4 28 C2.68 28 1.36 28 0 28 C0 18.76 0 9.52 0 0 Z " fill="#ECDCC5" transform="translate(295,244)"/>
<path d="M0 0 C2.95591515 1.23474936 4.27430491 2.61458253 6.28125 5.09375 C6.88582031 5.82722656 7.49039062 6.56070312 8.11328125 7.31640625 C8.56058594 7.88230469 9.00789063 8.44820313 9.46875 9.03125 C6.45987219 10.61283962 3.83202963 11.47070339 0.46875 12.03125 C0.13875 10.38125 -0.19125 8.73125 -0.53125 7.03125 C-0.86125 8.68125 -1.19125 10.33125 -1.53125 12.03125 C-3.18125 12.03125 -4.83125 12.03125 -6.53125 12.03125 C-6.53125 11.37125 -6.53125 10.71125 -6.53125 10.03125 C-7.85125 9.70125 -9.17125 9.37125 -10.53125 9.03125 C-9.32326323 7.49353979 -8.08902086 5.97642544 -6.84375 4.46875 C-6.15925781 3.62183594 -5.47476563 2.77492188 -4.76953125 1.90234375 C-2.53125 0.03125 -2.53125 0.03125 0 0 Z " fill="#3A393F" transform="translate(251.53125,307.96875)"/>
<path d="M0 0 C1.9375 1.125 1.9375 1.125 3 3 C3.33 4.98 3.66 6.96 4 9 C-1.28 9 -6.56 9 -12 9 C-11 3 -11 3 -9.9375 1.125 C-6.7686995 -0.71494868 -3.56377572 -0.53568236 0 0 Z " fill="#393D46" transform="translate(426,247)"/>
<path d="M0 0 C1.9375 1.125 1.9375 1.125 3 3 C3.33 4.98 3.66 6.96 4 9 C-1.28 9 -6.56 9 -12 9 C-11 3 -11 3 -9.9375 1.125 C-6.7686995 -0.71494868 -3.56377572 -0.53568236 0 0 Z " fill="#393D46" transform="translate(354,247)"/>
<path d="M0 0 C1.875 1.125 1.875 1.125 3 3 C3.33 4.98 3.66 6.96 4 9 C-0.95 9 -5.9 9 -11 9 C-11 4 -11 4 -9.4375 1.6875 C-6.10654682 -0.61854451 -3.9675271 -0.504958 0 0 Z " fill="#333842" transform="translate(119,247)"/>
<path d="M0 0 C5.28 0 10.56 0 16 0 C14.5 3 14.5 3 13 6 C11.68 6 10.36 6 9 6 C9 6.99 9 7.98 9 9 C6.6875 9.25 6.6875 9.25 4 9 C0.97184387 6.0799923 0.86848877 4.34244384 0 0 Z " fill="#33333A" transform="translate(304,308)"/>
<path d="M0 0 C1.32 0 2.64 0 4 0 C3.67 1.65 3.34 3.3 3 5 C4.32 5 5.64 5 7 5 C8.484375 6.4609375 8.484375 6.4609375 9.75 8.375 C10.17796875 9.00148438 10.6059375 9.62796875 11.046875 10.2734375 C12 12 12 12 12 14 C11.34 14 10.68 14 10 14 C6 8.58823529 6 8.58823529 6 6 C4.35 6 2.7 6 1 6 C1.99 6.33 2.98 6.66 4 7 C4 9.31 4 11.62 4 14 C2.35 14 0.7 14 -1 14 C-1 12.02 -1 10.04 -1 8 C-1.66 8 -2.32 8 -3 8 C-3.66 9.32 -4.32 10.64 -5 12 C-5.99 12 -6.98 12 -8 12 C-7.360625 11.21625 -6.72125 10.4325 -6.0625 9.625 C-4.01857687 7.20460719 -4.01857687 7.20460719 -3 5 C-2.01 5 -1.02 5 0 5 C0 3.35 0 1.7 0 0 Z " fill="#8E7F83" transform="translate(249,293)"/>
<path d="M0 0 C0.66 0 1.32 0 2 0 C2.33 1.65 2.66 3.3 3 5 C3.99 5 4.98 5 6 5 C6 6.65 6 8.3 6 10 C5.01 10 4.02 10 3 10 C3 10.99 3 11.98 3 13 C7.95 12.67 12.9 12.34 18 12 C18 12.66 18 13.32 18 14 C11.565 14.495 11.565 14.495 5 15 C4.67 16.32 4.34 17.64 4 19 C3.67 17.68 3.34 16.36 3 15 C2.01 15.495 2.01 15.495 1 16 C0.34444881 18.52733235 0.34444881 18.52733235 0 21 C-1.1875 19.375 -1.1875 19.375 -2 17 C-1.525625 16.154375 -1.05125 15.30875 -0.5625 14.4375 C1.68238501 9.49875297 0.77659978 5.2584226 0 0 Z " fill="#86777A" transform="translate(300,293)"/>
<path d="M0 0 C0.66 0.33 1.32 0.66 2 1 C2 1.99 2 2.98 2 4 C17.18 4 32.36 4 48 4 C48.495 4.99 48.495 4.99 49 6 C30.85 6 12.7 6 -6 6 C-6 5.34 -6 4.68 -6 4 C-4.03852126 2.61061923 -2.03833424 1.2739589 0 0 Z " fill="#4C4141" transform="translate(229,205)"/>
<path d="M0 0 C2.66666667 2.66666667 5.33333333 5.33333333 8 8 C7 11 7 11 4.6875 12.1875 C2 13 2 13 -2 13 C-2.33 14.32 -2.66 15.64 -3 17 C-3 15.68 -3 14.36 -3 13 C-3.66 13 -4.32 13 -5 13 C-5.33 14.32 -5.66 15.64 -6 17 C-5.67 12.71 -5.34 8.42 -5 4 C-3 6 -3 6 -2.875 8.625 C-2.91625 9.40875 -2.9575 10.1925 -3 11 C-0.36 10.01 2.28 9.02 5 8 C3.02 5.69 1.04 3.38 -1 1 C-0.67 0.67 -0.34 0.34 0 0 Z " fill="#877D82" transform="translate(255,309)"/>
<path d="M0 0 C0.33 0.99 0.66 1.98 1 3 C-3.96137926 7.15683127 -7.33907648 8.33197757 -13.703125 8.30078125 C-17.29737314 7.8301059 -19.22908701 6.27356963 -22 4 C-21.67 3.34 -21.34 2.68 -21 2 C-20.34 2.66 -19.68 3.32 -19 4 C-16.30528709 4.25217118 -13.75784876 4.37025884 -11.0625 4.375 C-10.33353516 4.39949219 -9.60457031 4.42398437 -8.85351562 4.44921875 C-6.44994207 4.50801672 -6.44994207 4.50801672 -3 4 C-0.95011513 2.13830459 -0.95011513 2.13830459 0 0 Z " fill="#615559" transform="translate(321,317)"/>
<path d="M0 0 C2.93453261 0.36681658 3.86437246 0.86437246 6 3 C6.3125 6 6.3125 6 6 9 C5.01 9.66 4.02 10.32 3 11 C2.26393501 14.56769552 2.26393501 14.56769552 2 18 C2.66 18.33 3.32 18.66 4 19 C2.68 19 1.36 19 0 19 C0 16.03 0 13.06 0 10 C0.99 9.67 1.98 9.34 3 9 C3 7.02 3 5.04 3 3 C1.35 2.67 -0.3 2.34 -2 2 C-1.34 1.34 -0.68 0.68 0 0 Z " fill="#494042" transform="translate(249,174)"/>
<path d="M0 0 C2 3 2 3 3 5 C3 3.68 3 2.36 3 1 C6.16115776 2.36983503 6.9927092 2.9890638 9 6 C5.62902617 7.49821059 3.79557881 8 0 8 C0 5.36 0 2.72 0 0 Z " fill="#353238" transform="translate(252,312)"/>
<path d="M0 0 C1.6415049 3.2830098 0.51888624 6.42545033 0 10 C-1.65 9.67 -3.3 9.34 -5 9 C-4.67 7.68 -4.34 6.36 -4 5 C-3.34 5 -2.68 5 -2 5 C-1.7834375 4.0409375 -1.7834375 4.0409375 -1.5625 3.0625 C-1 1 -1 1 0 0 Z " fill="#7F7279" transform="translate(319,293)"/>
<path d="M0 0 C0.33 0 0.66 0 1 0 C1.33 2.64 1.66 5.28 2 8 C2.33 8 2.66 8 3 8 C3 11.3 3 14.6 3 18 C2.67 18 2.34 18 2 18 C2 16.35 2 14.7 2 13 C1.34 13 0.68 13 0 13 C0 8.71 0 4.42 0 0 Z " fill="#AC8C8E" transform="translate(190,300)"/>
<path d="M0 0 C1.32 0 2.64 0 4 0 C4 2.31 4 4.62 4 7 C3.01 7 2.02 7 1 7 C0.67 4.69 0.34 2.38 0 0 Z " fill="#4A4043" transform="translate(249,300)"/>
<path d="M0 0 C2.375 0.1875 2.375 0.1875 5 1 C6.59642719 3.68490027 7.12740282 5.21434929 6.625 8.3125 C6.41875 8.869375 6.2125 9.42625 6 10 C3 4.375 3 4.375 3 1 C2.01 0.67 1.02 0.34 0 0 Z " fill="#4F4A51" transform="translate(249,308)"/>
<path d="M0 0 C0.68707555 2.49064888 1 4.37886292 1 7 C1.66 7 2.32 7 3 7 C2.67 7.99 2.34 8.98 2 10 C-0.5 8.1875 -0.5 8.1875 -3 6 C-3 3 -3 3 -1.5 1.3125 C-0.7575 0.6628125 -0.7575 0.6628125 0 0 Z " fill="#473D40" transform="translate(256,184)"/>
<path d="M0 0 C1.093125 0.185625 2.18625 0.37125 3.3125 0.5625 C6.93624133 1.2578068 6.93624133 1.2578068 10 0 C10 0.66 10 1.32 10 2 C9.34 2 8.68 2 8 2 C8 2.99 8 3.98 8 5 C5.6875 5.3125 5.6875 5.3125 3 5 C1.1875 2.5 1.1875 2.5 0 0 Z " fill="#847A82" transform="translate(305,312)"/>
<path d="M0 0 C1.98 0 3.96 0 6 0 C5 2 4 4 3 6 C2.34 6 1.68 6 1 6 C1 5.34 1 4.68 1 4 C0.34 3.67 -0.32 3.34 -1 3 C-0.67 2.01 -0.34 1.02 0 0 Z " fill="#554C51" transform="translate(314,308)"/>
<path d="M0 0 C0.66 0.66 1.32 1.32 2 2 C0.88200014 3.33920838 -0.24461897 4.67122556 -1.375 6 C-2.00148437 6.7425 -2.62796875 7.485 -3.2734375 8.25 C-3.84320313 8.8275 -4.41296875 9.405 -5 10 C-5.66 10 -6.32 10 -7 10 C-5.33248852 6.05860922 -2.77289351 3.2107188 0 0 Z " fill="#8B8386" transform="translate(246,309)"/>
<path d="M0 0 C1.65 0.33 3.3 0.66 5 1 C5 1.66 5 2.32 5 3 C4.34 3 3.68 3 3 3 C3 3.66 3 4.32 3 5 C2.34 5 1.68 5 1 5 C1 4.34 1 3.68 1 3 C0.34 3 -0.32 3 -1 3 C-0.67 2.01 -0.34 1.02 0 0 Z " fill="#8B7978" transform="translate(194,293)"/>
<path d="M0 0 C0.66 0.33 1.32 0.66 2 1 C2 1.99 2 2.98 2 4 C1 5 1 5 -1.5625 5.0625 C-2.7690625 5.0315625 -2.7690625 5.0315625 -4 5 C-4 4.34 -4 3.68 -4 3 C-2 1.375 -2 1.375 0 0 Z " fill="#41393D" transform="translate(229,205)"/>
<path d="M0 0 C1.125 1.75 1.125 1.75 2 4 C1.125 6.25 1.125 6.25 0 8 C-0.99 8 -1.98 8 -3 8 C-3 7.01 -3 6.02 -3 5 C-2.01 5 -1.02 5 0 5 C0 3.35 0 1.7 0 0 Z " fill="#38353B" transform="translate(246,176)"/>
<path d="M0 0 C-2.61673759 1.40182371 -5.0371669 2.60495559 -8 3 C-8.66 2.34 -9.32 1.68 -10 1 C-6.21812119 -0.83691257 -4.05431692 -1.15837626 0 0 Z " fill="#7C7378" transform="translate(262,319)"/>
<path d="M0 0 C1.32 0 2.64 0 4 0 C4.66 1.98 5.32 3.96 6 6 C4.68 6 3.36 6 2 6 C2.33 4.35 2.66 2.7 3 1 C2.01 0.67 1.02 0.34 0 0 Z " fill="#453E41" transform="translate(250,292)"/>
<path d="M0 0 C2.0625 0.4375 2.0625 0.4375 4 1 C3.360625 1.268125 2.72125 1.53625 2.0625 1.8125 C-0.33131686 2.88667752 -0.33131686 2.88667752 -1 6 C-1.99 5.67 -2.98 5.34 -4 5 C-3.67 3.68 -3.34 2.36 -3 1 C-2.34 1 -1.68 1 -1 1 C-0.67 0.67 -0.34 0.34 0 0 Z " fill="#D0C2B1" transform="translate(258,243)"/>
<path d="M0 0 C0.66 0.66 1.32 1.32 2 2 C-2.75 6 -2.75 6 -5 6 C-3.63016497 2.83884224 -3.0109362 2.0072908 0 0 Z " fill="#3A363C" transform="translate(231,198)"/>
<path d="M0 0 C1.32 1.65 2.64 3.3 4 5 C2.68 5 1.36 5 0 5 C-0.33 5.66 -0.66 6.32 -1 7 C-1.04254356 5.00045254 -1.04080783 2.99958364 -1 1 C-0.67 0.67 -0.34 0.34 0 0 Z " fill="#423C3E" transform="translate(255,301)"/>
</svg>
